<svg width="114" height="114" viewBox="0 0 114 114" fill="none" xmlns="http://www.w3.org/2000/svg">
<g filter="url(#filter0_d_260_22839)">
<path d="M56.7142 75.0323C44.1217 74.8913 34.7237 65.1629 34.9029 52.4415C35.0741 40.3405 45.1227 30.4872 57.111 30.6705C69.4296 30.8558 79.4158 41.0514 79.2829 53.3056C79.1499 65.4147 69.0147 75.1713 56.7142 75.0323Z" fill="#D88694" fill-opacity="0.9"/>
<path d="M68.713 26.9998C68.6405 28.7944 68.6103 30.3835 65.6736 29.2576C59.8728 27.032 53.9029 27.0682 48.0961 29.312C45.7153 30.2325 45.3911 29.2294 45.2521 27.2838C45.0507 24.3753 46.5895 22.5243 48.7728 21.0217C51.1898 19.354 53.9794 18.2342 56.1144 16.1374C56.6401 15.6198 57.1578 15.4667 57.7258 16.0488C59.9796 18.3429 63.0572 19.4064 65.581 21.2856C67.4239 22.6653 68.7815 24.3451 68.713 26.9998Z" fill="#D88694" fill-opacity="0.9"/>
<path d="M45.2689 79.2125C45.2245 76.2558 45.7583 75.859 48.4472 76.7815C54.2278 78.7674 60.0467 78.8299 65.7508 76.6445C67.9946 75.7844 68.5707 76.5095 68.7116 78.5559C68.9131 81.4402 67.4508 83.3315 65.2473 84.8522C62.8303 86.5239 60.0488 87.6579 57.8936 89.7305C57.4183 90.1877 56.9449 90.6006 56.3145 89.9601C53.9076 87.5189 50.5963 86.4152 47.9779 84.3043C46.3485 83.0092 45.1581 81.4462 45.2689 79.2125Z" fill="#D88694" fill-opacity="0.9"/>
<path d="M42.5068 32.0582C36.6517 36.5215 32.8268 42.2438 31.9265 49.6679C31.7593 51.0577 31.2658 51.2027 30.1137 50.7455C27.731 49.8049 25.7531 48.4675 25.4811 45.694C25.1267 42.139 24.9414 38.5679 24.6453 35.0069C24.5748 34.1609 25.0783 33.9132 25.7047 33.7198C28.5548 32.8457 30.9415 31.033 33.6163 29.8043C37.2358 28.1406 39.7736 28.7791 42.5068 32.0582Z" fill="#D88694" fill-opacity="0.9"/>
<path d="M77.072 28.9973C80.061 28.818 82.0853 31.3619 84.748 32.1031C88.7763 33.223 89.6605 35.6199 88.9777 39.3783C88.589 41.5254 89.0321 43.7752 88.4983 45.9706C88.1609 47.4149 87.3169 48.6905 86.1196 49.5659C83.6039 51.4934 82.5646 51.1228 81.8899 48.1197C80.5968 42.4035 77.8455 37.5414 73.4103 33.6661C71.1444 31.6862 71.235 31.1605 73.9299 29.6741C74.8947 29.1423 75.8957 28.959 77.072 28.9973Z" fill="#D88694" fill-opacity="0.9"/>
<path d="M71.3828 73.8845C77.3044 69.4796 81.0407 63.707 82.0578 56.3271C82.2593 54.8407 83.0931 55.0159 84.072 55.2757C86.8233 56.0008 88.6462 58.6192 88.8798 62.3454C89.049 65.0766 89.0147 67.8239 89.2524 70.5471C89.335 71.4978 89.0953 71.9368 88.2876 72.1866C85.4396 73.0648 83.0508 74.8816 80.376 76.0981C76.7143 77.7537 74.2872 77.1495 71.3828 73.8845Z" fill="#D88694" fill-opacity="0.9"/>
<path d="M42.5427 73.8561C39.6302 77.26 37.0702 77.8844 33.3299 76.0254C30.7881 74.7665 28.4657 73.0847 25.7486 72.1562C25.1947 71.9668 24.4737 71.7533 24.6529 70.8913C25.4244 67.157 24.6187 63.3019 25.5412 59.5777C25.8332 58.3995 26.518 57.4871 27.3942 56.7076C30.0811 54.3168 31.3903 54.7317 32.1637 58.1598C33.6401 64.6957 37.181 69.8983 42.5427 73.8561Z" fill="#D88694" fill-opacity="0.9"/>
<path d="M47.8189 12.746C47.6799 10.5184 48.1995 9.13665 49.3919 8.13561C51.7364 6.17181 54.4414 3.56951 57.1041 3.62994C59.6198 3.68432 62.1536 6.38732 64.5263 8.1336C66.3552 9.47704 66.4297 11.5577 66.043 13.6322C65.7247 15.3262 64.1658 15.2033 63.0096 15.3826C60.8484 15.7189 59.7346 13.9162 58.8746 12.5164C57.4647 10.2122 56.5684 9.6422 55.1866 12.46C54.7476 13.3563 53.7163 13.9485 53.0174 14.734C51.8089 16.0835 50.4493 15.3382 49.2066 14.9878C47.8309 14.589 47.8591 13.2637 47.8189 12.746Z" fill="#D88694" fill-opacity="0.9"/>
<path d="M66.1796 93.9167C66.3327 95.9308 65.3478 97.4012 63.7949 98.4687C61.8834 99.7839 59.8753 100.964 57.9115 102.203C57.4684 102.483 57.0132 102.868 56.4855 102.469C54.1309 100.678 51.2084 99.7094 49.1419 97.5301C47.4963 95.8059 47.2103 92.0918 48.6947 91.1955C50.9284 89.836 53.1682 90.3456 54.3887 92.5511C56.4492 96.2712 57.8712 95.4212 59.7001 92.4101C60.7575 90.6658 62.4836 90.0273 64.6287 90.8189C66.2461 91.4171 66.1132 92.6699 66.1796 93.9167Z" fill="#D88694" fill-opacity="0.9"/>
<path d="M99.8372 73.8749C99.3981 75.0048 101.046 77.1157 99.6358 77.9274C96.6851 79.6374 93.9357 82.1571 90.2962 82.1873C88.4129 82.1994 86.2437 81.2769 86.01 79.1661C85.7562 76.87 87.2729 75.2888 89.712 74.9364C90.3345 74.8336 90.9645 74.7837 91.5953 74.7873C93.8874 74.8417 94.4594 74.2052 93.1381 72.0319C91.9921 70.1427 91.2771 67.9774 93.116 65.9311C93.9418 65.0126 94.7273 64.3922 96.101 65.0207C98.4394 66.0882 99.7788 67.7478 99.8292 70.3542C99.8533 71.4055 99.8372 72.4589 99.8372 73.8749Z" fill="#D88694" fill-opacity="0.9"/>
<path d="M14.1003 32.0979C14.6099 30.9075 12.8918 28.7041 14.5756 27.8017C17.4901 26.2407 20.1045 23.6848 23.6615 23.7472C25.5568 23.7794 27.716 24.6395 27.9396 26.7685C28.1833 29.0747 26.6324 30.6215 24.2154 30.9982C23.5933 31.1021 22.9626 31.1459 22.3322 31.1291C19.8991 31.0344 19.6271 31.8703 20.8195 33.9127C21.9354 35.8301 22.6947 37.9531 20.8497 40.0136C20.0078 40.9522 19.2243 41.4859 17.8587 40.9219C15.4417 39.9149 14.207 38.1907 14.1063 35.6207C14.0661 34.5592 14.1003 33.5058 14.1003 32.0979Z" fill="#D88694" fill-opacity="0.9"/>
<path d="M14.0397 73.7264C14.1605 71.3336 13.657 69.0093 15.1293 67.0797C16.2452 65.6174 17.78 64.2317 19.6471 64.9709C21.5625 65.7282 22.6804 67.8109 21.6612 69.684C19.4678 73.6902 20.4527 75.1545 24.904 75.2149C27.2102 75.2471 28.2898 77.4043 27.9253 79.2613C27.5104 81.4125 25.3069 82.3229 23.2081 82.1497C19.8304 81.8717 17.1797 79.6521 14.4224 77.9743C13.0145 77.1263 14.4969 75.0236 14.0397 73.7264Z" fill="#D88694" fill-opacity="0.9"/>
<path d="M99.8783 32.1315C99.8259 35.2736 100.315 38.174 97.6023 40.0311C96.5952 40.726 95.427 41.7411 94.1782 40.9374C92.8529 40.0895 91.3826 38.7219 92.2426 37.0461C94.6959 32.2866 92.7321 30.9573 88.1277 30.2705C85.3865 29.8676 85.2032 26.3731 87.5235 24.7295C89.4732 23.3458 91.4954 23.5412 93.4914 24.516C95.3787 25.4385 97.1854 26.5302 99.0606 27.4728C101.687 28.8122 98.6718 31.0278 99.8783 32.1315Z" fill="#D88694" fill-opacity="0.9"/>
<path d="M22.1524 62.488C19.6367 59.1848 18.4282 55.9662 16.0072 53.6116C15.5439 53.1625 15.5661 52.7314 16.0072 52.2924C18.4141 49.9338 19.6105 46.7071 22.0939 43.5469C22.3054 47.3295 23.3186 50.1936 26.0437 52.1332C26.8635 52.7173 26.8111 53.245 26.0155 53.8251C23.3568 55.7627 22.2712 58.502 22.1524 62.488Z" fill="#D88694" fill-opacity="0.9"/>
<path d="M91.6624 62.518C91.8477 57.8854 89.9141 55.2287 87.0117 52.9527C89.9544 50.7231 91.8135 48.0221 91.6725 43.2969C94.3493 46.7552 95.6666 50.1108 98.1359 52.5781C98.2668 52.711 98.2447 53.2347 98.1017 53.3697C95.5598 55.7746 94.4379 59.1926 91.6624 62.518Z" fill="#D88694" fill-opacity="0.9"/>
<path d="M47.3069 17.9736C44.2433 20.5094 42.1385 23.1721 41.9895 27.0655C38.4446 25.3393 35.1091 25.5669 31.3145 27.4139C32.8976 23.8186 35.0608 21.1579 35.8685 17.8829C35.8955 17.7511 35.9505 17.6267 36.0298 17.518C36.1091 17.4094 36.2109 17.319 36.3282 17.2531C36.4454 17.1872 36.5755 17.1473 36.7096 17.1361C36.8436 17.1249 36.9785 17.1426 37.1052 17.188C40.2634 18.1367 43.5625 17.4459 47.3069 17.9736Z" fill="#D88694" fill-opacity="0.9"/>
<path d="M42.009 78.7617C42.1701 82.79 44.1682 85.4246 47.2458 87.8254C43.6203 88.6573 40.1963 87.6965 37.0059 88.76C36.454 88.9433 35.9786 88.5384 35.8437 87.9543C35.0884 84.6995 32.8728 82.1495 31.4629 78.7778C34.9857 80.1011 38.311 80.7517 42.009 78.7617Z" fill="#D88694" fill-opacity="0.9"/>
<path d="M82.0599 27.3563C78.8675 25.2455 75.5421 25.5315 71.967 27.0018C71.8139 23.1689 69.7333 20.4921 66.6113 17.9925C70.3476 17.4286 73.6266 18.1234 76.7667 17.207C77.7234 16.927 77.9994 17.634 78.231 18.4155C79.0548 21.1688 80.6339 23.5435 82.1022 25.9706C82.4225 26.4399 83.7196 26.9414 82.0599 27.3563Z" fill="#D88694" fill-opacity="0.9"/>
<path d="M71.9219 78.8062C75.5413 80.5767 78.7942 80.3752 82.5224 78.5625C81.0259 82.1195 78.8969 84.8447 77.9523 88.0995C77.7891 88.6655 77.2151 88.8891 76.6652 88.7179C73.5896 87.7632 70.3972 88.4782 66.4434 87.9586C69.807 85.4892 71.8171 82.6895 71.9219 78.8062Z" fill="#D88694" fill-opacity="0.9"/>
<path d="M96.1836 44.0459C100.297 43.0026 101.775 45.6573 103.86 48.034C107.37 52.0341 105.904 55.1721 103.29 58.6909C101.517 61.0756 99.7225 62.8179 96.24 61.8612C97.6197 58.8963 99.0095 56.0704 101.942 54.4853C104.158 53.2768 103.922 52.5215 101.866 51.4016C99.0457 49.8668 97.6962 47.0833 96.1836 44.0459Z" fill="#D88694" fill-opacity="0.9"/>
<path d="M29.7162 23.4293C26.8964 20.684 28.1049 18.2469 28.9246 15.3847C30.6749 9.34227 35.0497 9.71288 39.6863 10.1036C42.635 10.3534 43.773 11.2618 44.8385 14.4421C41.5393 14.7442 38.3448 14.8913 35.388 13.0846C33.67 12.0332 33.1221 12.7885 33.1725 14.5207C33.2812 17.8823 31.5269 20.5128 29.7162 23.4293Z" fill="#D88694" fill-opacity="0.9"/>
<path d="M17.6571 61.843C15.0387 62.6486 13.0668 61.9376 11.6449 59.9879C10.2229 58.0382 9.01235 55.9254 7.71926 53.879C7.55209 53.6151 7.31643 53.3271 7.30435 53.0391C7.19155 51.2646 13.0346 44.0801 14.8554 43.8324C15.6611 43.7236 16.8092 43.6028 17.2724 44.0439C18.0176 44.7408 17.0186 45.5384 16.638 46.2071C15.3771 48.4226 14.0014 50.5315 11.5925 51.7077C9.77974 52.594 10.0859 53.4258 11.6771 54.2717C14.7426 55.9012 16.2633 58.7251 17.6571 61.843Z" fill="#D88694" fill-opacity="0.9"/>
<path d="M84.205 23.3745C82.491 20.6151 80.644 18.0349 80.7588 14.6672C80.8212 12.7679 80.2975 12.0086 78.4103 13.1627C75.5421 14.915 72.3859 14.7015 69.0605 14.4799C69.6648 11.6098 71.4594 10.357 74.1322 10.1132C81.6269 9.43044 81.9693 9.62179 85.1557 15.8596C86.5152 18.5183 86.8979 21.0239 84.205 23.3745Z" fill="#D88694" fill-opacity="0.9"/>
<path d="M84.1822 82.5039C86.4199 84.5301 86.6394 86.647 85.6666 89.0237C83.0341 95.469 80.6715 96.8145 73.7106 95.7913C72.9824 95.6917 72.2767 95.4682 71.6239 95.1307C70.3811 94.464 68.9894 93.3663 69.2532 92.0651C69.5715 90.4941 71.3459 91.4609 72.4577 91.3521C74.6068 91.1285 76.6371 91.7227 78.5002 92.8124C80.1397 93.7771 80.8548 93.2998 80.7561 91.4629C80.5627 88.073 82.4399 85.499 84.1822 82.5039Z" fill="#D88694" fill-opacity="0.9"/>
<path d="M45.0181 91.4366C43.9849 94.762 41.9063 95.8234 38.9575 95.8939C31.7328 96.0651 31.761 96.0953 28.6712 89.8373C27.3822 87.2189 27.221 84.8462 29.773 82.5078C31.4649 85.2853 33.1971 87.8816 33.1789 91.1969C33.1648 92.9754 33.5274 93.9805 35.5053 92.782C38.3734 91.0478 41.5155 91.1808 45.0181 91.4366Z" fill="#D88694" fill-opacity="0.9"/>
<path d="M15.9824 82.6797C18.762 83.7774 20.8587 85.3948 23.5476 85.1893C24.2727 85.1329 24.7964 85.4391 24.742 86.2669C24.5668 88.9417 26.0149 91.1009 27.304 93.8824C24.176 93.1936 21.4206 92.5813 18.6612 91.9791C17.9986 91.834 17.9805 91.3003 17.8556 90.7887C17.2856 88.2448 16.6874 85.705 15.9824 82.6797Z" fill="#D88694" fill-opacity="0.9"/>
<path d="M89.1247 20.8482C89.6343 17.7384 88.3069 15.1058 86.6211 12.2659C89.7793 12.2437 92.3171 13.6436 95.0564 13.8893C95.8621 13.9618 95.9487 14.5479 96.0937 15.2025C96.6496 17.7404 97.272 20.2641 97.9689 23.2128C94.8953 21.8674 92.2748 20.1735 89.1066 20.8422L89.1247 20.8482Z" fill="#D88694" fill-opacity="0.9"/>
<path d="M16.0254 23.202C16.6981 20.2371 17.3286 17.6006 17.8784 14.9439C18.0416 14.1584 18.4827 13.9952 19.1675 13.8482C21.7214 13.2903 24.2613 12.6659 27.2503 11.9609C26.1002 14.6841 24.5815 16.8896 24.6923 19.5926C24.7012 19.7271 24.6822 19.8621 24.6367 19.989C24.5911 20.116 24.5199 20.2322 24.4276 20.3304C24.3352 20.4286 24.2236 20.5068 24.0997 20.5601C23.9758 20.6133 23.8422 20.6405 23.7074 20.6399C20.9601 20.5332 18.7646 22.1425 16.0254 23.202Z" fill="#D88694" fill-opacity="0.9"/>
<path d="M86.6543 93.9887C87.8286 91.2031 89.3553 89.0782 89.2526 86.4034C89.2244 85.6662 89.7501 85.2191 90.4611 85.2271C93.1016 85.2614 95.295 83.9421 97.9275 82.6953C97.2508 85.634 96.5901 88.2584 96.0705 90.909C95.8691 91.902 95.2648 91.9463 94.5216 92.1175C92.0925 92.6614 89.6514 93.2656 86.6543 93.9887Z" fill="#D88694" fill-opacity="0.9"/>
<path d="M6.68875 58.1445C8.38467 60.7045 9.51864 62.908 11.7241 64.1487C12.5419 64.612 12.6466 65.1558 12.1874 65.9615C10.9366 68.1388 10.9185 70.5799 10.9467 73.6374C8.45516 71.4057 6.36648 69.5608 4.31607 67.6775C3.89511 67.2928 3.95956 66.747 4.1368 66.2032C4.93844 63.6996 5.71994 61.196 6.68875 58.1445Z" fill="#D88694" fill-opacity="0.9"/>
<path d="M107.252 58.293C108.204 61.2236 109.04 63.7876 109.87 66.3496C109.97 66.5939 109.99 66.8638 109.927 67.1203C109.864 67.3767 109.72 67.6062 109.517 67.7756C107.503 69.5884 105.501 71.4011 103.088 73.5925C103.012 70.4847 102.935 67.8602 101.58 65.5359C101.217 64.9135 101.566 64.5288 102.053 64.271C104.387 63.0142 105.521 60.6677 107.252 58.293Z" fill="#D88694" fill-opacity="0.9"/>
<path d="M103.099 32.3203C105.516 34.5097 107.508 36.3365 109.518 38.1614C109.963 38.5642 110.138 39.0657 109.882 39.5713C108.674 42.0044 108.694 44.8826 107.091 47.505C105.574 45.223 104.364 42.945 102.07 41.6519C101.594 41.384 101.226 41.0074 101.592 40.385C102.97 38.0607 103.026 35.4322 103.099 32.3203Z" fill="#D88694" fill-opacity="0.9"/>
<path d="M6.73385 47.9115C5.72678 44.7574 4.95737 42.2497 4.13962 39.7542C3.91806 39.0795 3.97043 38.5699 4.52835 38.0684C6.48007 36.318 8.40158 34.5315 10.6595 32.4609C11.1147 35.4117 10.9676 38.1731 12.3876 40.5538C12.7501 41.1581 12.1499 41.5025 11.7108 41.7623C9.54562 43.0574 8.31094 45.1602 6.73385 47.9115Z" fill="#D88694" fill-opacity="0.9"/>
<path d="M36.332 99.104C39.3533 98.9308 41.8105 99.0517 43.9858 97.7707C44.7633 97.3094 45.3313 97.396 45.7986 98.2198C47.0514 100.403 49.1804 101.616 51.8411 103.169C48.6849 104.196 46.0745 105.052 43.4581 105.894C42.8921 106.075 42.4752 105.825 42.0845 105.392C40.3301 103.445 38.5496 101.521 36.332 99.104Z" fill="#D88694" fill-opacity="0.9"/>
<path d="M77.7659 98.9417C75.4194 101.512 73.6388 103.433 71.8966 105.387C71.3991 105.947 70.8895 106.032 70.2168 105.81C67.7233 105.004 65.2197 104.209 62.418 103.314C64.5792 101.441 67.115 100.394 68.3517 97.9588C68.6196 97.429 69.0868 97.3062 69.671 97.6345C71.947 98.9034 74.4647 99.1048 77.7659 98.9417Z" fill="#D88694" fill-opacity="0.9"/>
<path d="M62.3125 2.65927C65.1686 1.74484 67.6722 0.96939 70.1536 0.129486C70.9955 -0.156524 71.483 0.0912169 72.0489 0.733733C73.7167 2.62704 75.473 4.44582 77.4751 6.59694C74.6029 7.11458 71.8354 6.94137 69.4889 8.36336C68.8686 8.738 68.5101 8.2546 68.2462 7.80343C66.9269 5.53952 64.6389 4.33706 62.3125 2.65927Z" fill="#D88694" fill-opacity="0.9"/>
<path d="M51.615 2.64094C49.198 4.43354 46.9824 5.54737 45.7377 7.76092C45.3973 8.36517 44.9904 8.68341 44.215 8.23828C41.9591 6.93915 39.4233 6.86664 36.2832 6.92505C38.4605 4.52417 40.2773 2.54425 42.0618 0.534124C42.5553 -0.0217831 43.0548 -0.110403 43.7396 0.115182C46.2311 0.938973 48.7367 1.72248 51.615 2.64094Z" fill="#D88694" fill-opacity="0.9"/>
<g filter="url(#filter1_i_260_22839)">
<path d="M57.9172 69.0732L74.2318 49.8944L70.1592 43.0926H45.2662L41.1855 50.0294L51.3873 61.4557C51.3873 61.4557 49.4819 58.0558 55.8768 51.5259C55.8768 51.5259 51.9311 53.1574 49.4819 58.0558L44.4465 51.9348C44.4465 51.9348 42.817 49.7595 45.6731 49.7595C45.6731 49.7595 42.2732 49.8964 44.5854 47.4472L46.2189 44.5911H69.2065L71.3838 47.7191C71.3838 47.7191 72.4715 49.8964 69.7523 49.8964C69.7523 49.8964 72.4715 49.6245 70.558 51.6649L57.6452 66.8979C57.6452 66.8979 53.4276 62.6803 57.1014 58.5996C57.1014 58.5996 67.712 47.989 67.575 45.5398C67.575 45.5398 68.4593 38.9434 61.589 39.8277C61.589 39.8277 58.8014 40.2305 58.1891 42.9556C58.1891 42.9556 60.5013 40.6434 62.2698 41.6646C64.0382 42.6857 62.9042 45.5761 62.2013 46.6295C61.5225 47.6486 57.9172 52.0012 57.9172 52.0012C57.9172 52.0012 51.1838 59.4838 54.2433 64.4487L57.9172 69.0732Z" fill="white"/>
</g>
</g>
<defs>
<filter id="filter0_d_260_22839" x="0" y="0" width="114" height="113.953" filterUnits="userSpaceOnUse" color-interpolation-filters="sRGB">
<feFlood flood-opacity="0" result="BackgroundImageFix"/>
<feColorMatrix in="SourceAlpha" type="matrix" values="0 0 0 0 0 0 0 0 0 0 0 0 0 0 0 0 0 0 127 0" result="hardAlpha"/>
<feOffset dy="4"/>
<feGaussianBlur stdDeviation="2"/>
<feComposite in2="hardAlpha" operator="out"/>
<feColorMatrix type="matrix" values="0 0 0 0 0.733333 0 0 0 0 0.407843 0 0 0 0 0.470588 0 0 0 0.4 0"/>
<feBlend mode="normal" in2="BackgroundImageFix" result="effect1_dropShadow_260_22839"/>
<feBlend mode="normal" in="SourceGraphic" in2="effect1_dropShadow_260_22839" result="shape"/>
</filter>
<filter id="filter1_i_260_22839" x="41.1855" y="39.7461" width="33.0469" height="39.3281" filterUnits="userSpaceOnUse" color-interpolation-filters="sRGB">
<feFlood flood-opacity="0" result="BackgroundImageFix"/>
<feBlend mode="normal" in="SourceGraphic" in2="BackgroundImageFix" result="shape"/>
<feColorMatrix in="SourceAlpha" type="matrix" values="0 0 0 0 0 0 0 0 0 0 0 0 0 0 0 0 0 0 127 0" result="hardAlpha"/>
<feOffset dy="10"/>
<feGaussianBlur stdDeviation="5"/>
<feComposite in2="hardAlpha" operator="arithmetic" k2="-1" k3="1"/>
<feColorMatrix type="matrix" values="0 0 0 0 0.733333 0 0 0 0 0.407843 0 0 0 0 0.470588 0 0 0 0.1 0"/>
<feBlend mode="normal" in2="shape" result="effect1_innerShadow_260_22839"/>
</filter>
</defs>
</svg>
