<svg width="80" height="80" viewBox="0 0 80 80" fill="none" xmlns="http://www.w3.org/2000/svg">
<g filter="url(#filter0_d_260_22903)">
<path d="M39.8012 52.2956C31.0246 52.1973 24.4745 45.4169 24.5994 36.5505C24.7187 28.1164 31.7223 21.249 40.0778 21.3768C48.6635 21.5059 55.6235 28.612 55.5309 37.1527C55.4382 45.5924 48.3743 52.3925 39.8012 52.2956Z" fill="white" fill-opacity="0.9"/>
<path d="M48.1647 18.8183C48.1141 20.069 48.0931 21.1767 46.0463 20.3919C42.0034 18.8407 37.8425 18.866 33.7953 20.4298C32.136 21.0714 31.91 20.3723 31.8131 19.0162C31.6727 16.9891 32.7452 15.699 34.267 14.6518C35.9515 13.4894 37.8958 12.7089 39.3839 11.2475C39.7502 10.8867 40.111 10.7801 40.5069 11.1858C42.0778 12.7847 44.2228 13.5259 45.9817 14.8357C47.2662 15.7973 48.2124 16.968 48.1647 18.8183Z" fill="white" fill-opacity="0.9"/>
<path d="M31.8233 55.2095C31.7925 53.1487 32.1645 52.8721 34.0385 53.5151C38.0675 54.8992 42.1231 54.9427 46.0987 53.4196C47.6625 52.8202 48.064 53.3255 48.1622 54.7518C48.3026 56.7621 47.2835 58.0802 45.7477 59.1401C44.0631 60.3053 42.1245 61.0956 40.6224 62.5401C40.2911 62.8588 39.9612 63.1466 39.5218 62.7002C37.8443 60.9988 35.5364 60.2295 33.7115 58.7583C32.5758 57.8556 31.7461 56.7663 31.8233 55.2095Z" fill="white" fill-opacity="0.9"/>
<path d="M29.8989 22.3449C25.818 25.4557 23.1522 29.4439 22.5247 34.6184C22.4082 35.587 22.0642 35.6881 21.2612 35.3694C19.6005 34.7138 18.222 33.7817 18.0325 31.8486C17.7854 29.3709 17.6563 26.882 17.4499 24.4C17.4008 23.8104 17.7517 23.6378 18.1883 23.503C20.1747 22.8938 21.8382 21.6303 23.7025 20.774C26.2251 19.6145 27.9939 20.0595 29.8989 22.3449Z" fill="white" fill-opacity="0.9"/>
<path d="M53.9909 20.2094C56.0741 20.0845 57.485 21.8575 59.3408 22.3741C62.1484 23.1546 62.7647 24.8251 62.2888 27.4446C62.0179 28.9411 62.3267 30.5091 61.9547 32.0393C61.7195 33.0459 61.1313 33.935 60.2968 34.5451C58.5434 35.8885 57.8191 35.6302 57.3488 33.5372C56.4475 29.5532 54.53 26.1644 51.4388 23.4634C49.8595 22.0835 49.9227 21.7171 51.801 20.6811C52.4734 20.3105 53.1711 20.1827 53.9909 20.2094Z" fill="white" fill-opacity="0.9"/>
<path d="M50.0234 51.4974C54.1506 48.4273 56.7547 44.404 57.4636 39.2604C57.604 38.2244 58.1852 38.3466 58.8674 38.5276C60.785 39.033 62.0555 40.858 62.2183 43.455C62.3362 45.3586 62.3124 47.2734 62.478 49.1713C62.5356 49.8339 62.3685 50.1399 61.8056 50.314C59.8206 50.9261 58.1557 52.1923 56.2914 53.0402C53.7393 54.1941 52.0477 53.773 50.0234 51.4974Z" fill="white" fill-opacity="0.9"/>
<path d="M29.9236 51.4748C27.8937 53.8472 26.1095 54.2824 23.5026 52.9867C21.731 52.1093 20.1124 50.9371 18.2187 50.29C17.8326 50.158 17.3301 50.0092 17.455 49.4084C17.9927 46.8057 17.4311 44.1188 18.0741 41.5232C18.2776 40.7019 18.7549 40.066 19.3656 39.5228C21.2383 37.8564 22.1507 38.1456 22.6898 40.5349C23.7188 45.0902 26.1867 48.7163 29.9236 51.4748Z" fill="white" fill-opacity="0.9"/>
<path d="M33.6013 8.8856C33.5044 7.33299 33.8666 6.36998 34.6976 5.67229C36.3317 4.30357 38.217 2.48986 40.0728 2.53197C41.8262 2.56987 43.5922 4.45378 45.2458 5.67088C46.5205 6.60722 46.5724 8.05735 46.3029 9.50328C46.0811 10.6839 44.9946 10.5982 44.1888 10.7232C42.6825 10.9576 41.9062 9.70121 41.3068 8.72557C40.3241 7.11961 39.6994 6.72233 38.7364 8.68626C38.4304 9.31095 37.7116 9.72367 37.2245 10.2712C36.3822 11.2117 35.4346 10.6923 34.5685 10.448C33.6097 10.1701 33.6293 9.24638 33.6013 8.8856Z" fill="white" fill-opacity="0.9"/>
<path d="M46.397 65.4585C46.5037 66.8623 45.8172 67.8871 44.7349 68.6311C43.4026 69.5478 42.0031 70.3704 40.6343 71.2338C40.3255 71.4289 40.0082 71.697 39.6404 71.4191C37.9994 70.1711 35.9625 69.4958 34.5222 67.9769C33.3753 66.7753 33.1759 64.1866 34.2105 63.5619C35.7673 62.6144 37.3284 62.9695 38.1791 64.5067C39.6152 67.0995 40.6063 66.5071 41.8809 64.4084C42.6179 63.1927 43.821 62.7477 45.316 63.2994C46.4433 63.7164 46.3506 64.5895 46.397 65.4585Z" fill="white" fill-opacity="0.9"/>
<path d="M69.8556 51.4895C69.5496 52.277 70.6979 53.7482 69.7152 54.314C67.6586 55.5058 65.7424 57.262 63.2058 57.283C61.8932 57.2914 60.3813 56.6485 60.2185 55.1773C60.0416 53.577 61.0986 52.475 62.7987 52.2293C63.2325 52.1577 63.6716 52.1229 64.1112 52.1254C65.7088 52.1633 66.1074 51.7197 65.1865 50.205C64.3878 48.8883 63.8894 47.3792 65.1711 45.9529C65.7467 45.3128 66.2941 44.8804 67.2515 45.3184C68.8814 46.0624 69.8149 47.2191 69.85 49.0357C69.8668 49.7684 69.8556 50.5026 69.8556 51.4895Z" fill="white" fill-opacity="0.9"/>
<path d="M10.1002 22.3717C10.4554 21.5421 9.25792 20.0063 10.4315 19.3774C12.4628 18.2895 14.285 16.508 16.7641 16.5516C18.0851 16.574 19.5899 17.1735 19.7458 18.6573C19.9156 20.2646 18.8347 21.3428 17.1501 21.6053C16.7165 21.6777 16.277 21.7082 15.8376 21.6965C14.1418 21.6305 13.9522 22.2131 14.7833 23.6366C15.561 24.973 16.0902 26.4526 14.8044 27.8887C14.2176 28.5429 13.6715 28.9149 12.7197 28.5218C11.0351 27.8199 10.1746 26.6183 10.1044 24.827C10.0763 24.0872 10.1002 23.353 10.1002 22.3717Z" fill="white" fill-opacity="0.9"/>
<path d="M10.0585 51.386C10.1427 49.7183 9.79176 48.0983 10.8179 46.7535C11.5956 45.7343 12.6653 44.7685 13.9667 45.2837C15.3017 45.8115 16.0808 47.2631 15.3705 48.5686C13.8417 51.3608 14.5282 52.3813 17.6306 52.4235C19.238 52.4459 19.9904 53.9494 19.7363 55.2437C19.4471 56.743 17.9114 57.3775 16.4486 57.2568C14.0944 57.063 12.247 55.516 10.3252 54.3467C9.34395 53.7557 10.3771 52.2901 10.0585 51.386Z" fill="white" fill-opacity="0.9"/>
<path d="M69.8836 22.3928C69.8471 24.5828 70.1883 26.6042 68.2973 27.8985C67.5954 28.3829 66.7812 29.0904 65.9109 28.5303C64.9872 27.9393 63.9624 26.9861 64.5618 25.8181C66.2716 22.5009 64.9029 21.5744 61.6938 21.0957C59.7833 20.8149 59.6555 18.3793 61.2727 17.2338C62.6316 16.2694 64.041 16.4056 65.4322 17.085C66.7475 17.728 68.0068 18.4888 69.3137 19.1458C71.1443 20.0793 69.0428 21.6235 69.8836 22.3928Z" fill="white" fill-opacity="0.9"/>
<path d="M15.7128 43.553C13.9594 41.2507 13.1171 39.0074 11.4298 37.3664C11.1069 37.0533 11.1223 36.7529 11.4298 36.4469C13.1073 34.803 13.9412 32.5541 15.6721 30.3516C15.8195 32.9879 16.5256 34.9841 18.4249 36.336C18.9963 36.7431 18.9598 37.1109 18.4053 37.5152C16.5523 38.8657 15.7956 40.7748 15.7128 43.553Z" fill="white" fill-opacity="0.9"/>
<path d="M64.1594 43.5723C64.2885 40.3436 62.9409 38.4919 60.918 36.9056C62.9689 35.3516 64.2646 33.4691 64.1664 30.1758C66.032 32.5861 66.9501 34.9249 68.6712 36.6445C68.7624 36.7372 68.747 37.1022 68.6473 37.1962C66.8757 38.8724 66.0938 41.2546 64.1594 43.5723Z" fill="white" fill-opacity="0.9"/>
<path d="M33.2439 12.5274C31.1087 14.2948 29.6417 16.1506 29.5378 18.8642C27.0671 17.6611 24.7424 17.8197 22.0977 19.107C23.201 16.6012 24.7087 14.7468 25.2717 12.4642C25.2905 12.3724 25.3288 12.2856 25.3841 12.2099C25.4394 12.1342 25.5103 12.0712 25.5921 12.0253C25.6738 11.9793 25.7645 11.9515 25.8579 11.9437C25.9513 11.9359 26.0454 11.9482 26.1336 11.9799C28.3348 12.6411 30.6342 12.1596 33.2439 12.5274Z" fill="white" fill-opacity="0.9"/>
<path d="M29.5515 54.8945C29.6638 57.7021 31.0564 59.5383 33.2014 61.2117C30.6745 61.7914 28.2881 61.1218 26.0644 61.863C25.6798 61.9908 25.3485 61.7086 25.2545 61.3015C24.728 59.033 23.1838 57.2557 22.2012 54.9058C24.6564 55.8281 26.9741 56.2815 29.5515 54.8945Z" fill="white" fill-opacity="0.9"/>
<path d="M57.4645 19.0665C55.2394 17.5954 52.9217 17.7947 50.43 18.8195C50.3233 16.148 48.8732 14.2824 46.6973 12.5402C49.3013 12.1472 51.5867 12.6315 53.7753 11.9928C54.4421 11.7976 54.6344 12.2904 54.7958 12.835C55.37 14.754 56.4706 16.4091 57.4939 18.1007C57.7171 18.4278 58.6212 18.7774 57.4645 19.0665Z" fill="white" fill-opacity="0.9"/>
<path d="M50.4004 54.9238C52.923 56.1577 55.1902 56.0173 57.7886 54.7539C56.7456 57.233 55.2618 59.1324 54.6034 61.4009C54.4897 61.7954 54.0896 61.9512 53.7064 61.8319C51.5627 61.1665 49.3377 61.6649 46.582 61.3027C48.9264 59.5816 50.3274 57.6303 50.4004 54.9238Z" fill="white" fill-opacity="0.9"/>
<path d="M67.3105 30.6979C70.1771 29.9707 71.2075 31.8209 72.6605 33.4774C75.1073 36.2654 74.0853 38.4525 72.2632 40.9049C71.0278 42.567 69.777 43.7813 67.3498 43.1145C68.3115 41.0481 69.2801 39.0786 71.324 37.9738C72.8682 37.1315 72.704 36.6051 71.2707 35.8246C69.3054 34.7549 68.3648 32.8148 67.3105 30.6979Z" fill="white" fill-opacity="0.9"/>
<path d="M20.9841 16.3299C19.0187 14.4165 19.861 12.7179 20.4324 10.7231C21.6523 6.51164 24.7013 6.76994 27.9329 7.04227C29.9881 7.21635 30.7812 7.84946 31.5238 10.0661C29.2244 10.2766 26.998 10.3791 24.9372 9.11991C23.7397 8.38712 23.3579 8.91355 23.393 10.1208C23.4688 12.4638 22.2461 14.2971 20.9841 16.3299Z" fill="white" fill-opacity="0.9"/>
<path d="M12.578 43.1043C10.7531 43.6659 9.37874 43.1703 8.38765 41.8114C7.39657 40.4525 6.55288 38.98 5.65163 37.5537C5.53512 37.3698 5.37087 37.169 5.36245 36.9683C5.28384 35.7315 9.35628 30.7242 10.6253 30.5515C11.1868 30.4757 11.987 30.3915 12.3099 30.6989C12.8293 31.1846 12.133 31.7405 11.8677 32.2066C10.9889 33.7508 10.0301 35.2206 8.35115 36.0404C7.08773 36.6581 7.30111 37.2378 8.41011 37.8274C10.5467 38.9631 11.6066 40.9312 12.578 43.1043Z" fill="white" fill-opacity="0.9"/>
<path d="M58.9615 16.2899C57.7668 14.3667 56.4795 12.5684 56.5596 10.2212C56.6031 8.89742 56.2381 8.36818 54.9227 9.17256C52.9237 10.3939 50.7239 10.2451 48.4062 10.0907C48.8274 8.09023 50.0782 7.21706 51.941 7.0472C57.1646 6.57131 57.4033 6.70467 59.6241 11.0523C60.5716 12.9053 60.8384 14.6516 58.9615 16.2899Z" fill="white" fill-opacity="0.9"/>
<path d="M58.9453 57.5C60.5049 58.9122 60.6579 60.3876 59.9799 62.0441C58.1451 66.5363 56.4984 67.474 51.6469 66.7609C51.1394 66.6915 50.6475 66.5357 50.1925 66.3005C49.3264 65.8358 48.3563 65.0707 48.5402 64.1639C48.762 63.0689 49.9988 63.7427 50.7737 63.6669C52.2716 63.5111 53.6866 63.9252 54.9851 64.6847C56.1278 65.3571 56.6262 65.0244 56.5574 63.7441C56.4226 61.3815 57.731 59.5875 58.9453 57.5Z" fill="white" fill-opacity="0.9"/>
<path d="M31.6477 63.727C30.9276 66.0447 29.4788 66.7845 27.4237 66.8336C22.3882 66.9529 22.4079 66.974 20.2544 62.6124C19.356 60.7874 19.2437 59.1337 21.0223 57.5039C22.2015 59.4398 23.4088 61.2493 23.3961 63.5599C23.3863 64.7995 23.639 65.5 25.0175 64.6647C27.0166 63.456 29.2065 63.5487 31.6477 63.727Z" fill="white" fill-opacity="0.9"/>
<path d="M11.4121 57.625C13.3494 58.3901 14.8107 59.5173 16.6848 59.3741C17.1902 59.3348 17.5552 59.5482 17.5173 60.1252C17.3951 61.9894 18.4045 63.4943 19.3029 65.433C17.1228 64.9529 15.2024 64.5261 13.2792 64.1064C12.8173 64.0053 12.8047 63.6333 12.7176 63.2767C12.3204 61.5037 11.9034 59.7335 11.4121 57.625Z" fill="white" fill-opacity="0.9"/>
<path d="M62.3914 14.5326C62.7466 12.3651 61.8215 10.5303 60.6465 8.55096C62.8477 8.53552 64.6165 9.51117 66.5256 9.68243C67.0872 9.73297 67.1475 10.1415 67.2486 10.5977C67.636 12.3665 68.0698 14.1255 68.5555 16.1807C66.4133 15.2429 64.587 14.0623 62.3788 14.5284L62.3914 14.5326Z" fill="white" fill-opacity="0.9"/>
<path d="M11.4414 16.1706C11.9103 14.1042 12.3497 12.2666 12.7329 10.415C12.8466 9.86749 13.1541 9.75378 13.6313 9.6513C15.4114 9.26245 17.1816 8.82727 19.2648 8.33594C18.4633 10.2339 17.4048 11.7711 17.482 13.655C17.4882 13.7488 17.4749 13.8428 17.4432 13.9313C17.4115 14.0197 17.3618 14.1007 17.2975 14.1692C17.2331 14.2377 17.1553 14.2922 17.0689 14.3293C16.9826 14.3664 16.8895 14.3853 16.7955 14.3849C14.8807 14.3105 13.3506 15.4322 11.4414 16.1706Z" fill="white" fill-opacity="0.9"/>
<path d="M60.668 65.5079C61.4864 63.5664 62.5505 62.0854 62.4789 60.2211C62.4592 59.7073 62.8256 59.3957 63.3212 59.4013C65.1616 59.4252 66.6903 58.5057 68.5251 57.6367C68.0534 59.6849 67.5929 61.514 67.2308 63.3614C67.0904 64.0535 66.6692 64.0844 66.1512 64.2037C64.4582 64.5828 62.7568 65.0039 60.668 65.5079Z" fill="white" fill-opacity="0.9"/>
<path d="M4.93452 40.5234C6.11653 42.3077 6.90687 43.8434 8.44404 44.7082C9.01398 45.0311 9.08698 45.4101 8.76691 45.9716C7.89515 47.4891 7.88252 49.1905 7.90217 51.3215C6.16566 49.7661 4.70991 48.4802 3.28084 47.1676C2.98744 46.8995 3.03236 46.5191 3.1559 46.1401C3.71461 44.3951 4.25929 42.6502 4.93452 40.5234Z" fill="white" fill-opacity="0.9"/>
<path d="M75.0245 40.6289C75.6885 42.6714 76.271 44.4585 76.8494 46.2441C76.9194 46.4144 76.9333 46.6025 76.8891 46.7813C76.845 46.96 76.745 47.12 76.6037 47.238C75.1999 48.5015 73.8045 49.7649 72.1228 51.2922C72.0694 49.1262 72.0161 47.297 71.0713 45.677C70.8186 45.2432 71.0615 44.9751 71.4012 44.7954C73.0282 43.9194 73.8186 42.284 75.0245 40.6289Z" fill="white" fill-opacity="0.9"/>
<path d="M72.1284 22.5273C73.813 24.0533 75.2013 25.3265 76.6023 26.5984C76.9126 26.8791 77.0347 27.2287 76.8564 27.581C76.0141 29.2768 76.0282 31.2829 74.9107 33.1106C73.8537 31.5201 73.01 29.9324 71.411 29.0312C71.0798 28.8445 70.8228 28.582 71.0783 28.1482C72.0385 26.5282 72.0779 24.6962 72.1284 22.5273Z" fill="white" fill-opacity="0.9"/>
<path d="M4.96543 33.3936C4.26352 31.1952 3.72727 29.4475 3.15732 27.7082C3.0029 27.2379 3.03941 26.8827 3.42826 26.5332C4.78855 25.3133 6.12778 24.0681 7.70145 22.625C8.01871 24.6816 7.91623 26.6062 8.90591 28.2655C9.1586 28.6866 8.74027 28.9267 8.43424 29.1078C6.92514 30.0104 6.06461 31.476 4.96543 33.3936Z" fill="white" fill-opacity="0.9"/>
<path d="M25.5957 69.0726C27.7014 68.9519 29.4141 69.0361 30.9302 68.1433C31.472 67.8218 31.8679 67.8822 32.1936 68.4564C33.0668 69.9781 34.5506 70.8232 36.405 71.9055C34.2053 72.6214 32.3859 73.2181 30.5624 73.8049C30.1679 73.9312 29.8773 73.7571 29.605 73.4553C28.3823 72.0978 27.1413 70.7572 25.5957 69.0726Z" fill="white" fill-opacity="0.9"/>
<path d="M54.4744 68.9594C52.8389 70.7506 51.598 72.0898 50.3837 73.4515C50.0369 73.8418 49.6818 73.9008 49.2129 73.7463C47.475 73.1848 45.73 72.6303 43.7773 72.007C45.2836 70.7015 47.051 69.9715 47.913 68.2743C48.0997 67.9051 48.4254 67.8195 48.8325 68.0483C50.4188 68.9327 52.1735 69.0731 54.4744 68.9594Z" fill="white" fill-opacity="0.9"/>
<path d="M43.7031 1.85307C45.6937 1.21575 47.4387 0.67528 49.1681 0.0898926C49.7549 -0.109448 50.0947 0.0632203 50.4891 0.511035C51.6515 1.83061 52.8756 3.09825 54.271 4.59751C52.2692 4.95829 50.3403 4.83757 48.7049 5.82866C48.2725 6.08976 48.0226 5.75285 47.8387 5.4384C46.9192 3.86052 45.3245 3.02244 43.7031 1.85307Z" fill="white" fill-opacity="0.9"/>
<path d="M36.2463 1.84065C34.5618 3.09004 33.0176 3.86635 32.15 5.40913C31.9128 5.83027 31.6292 6.05207 31.0887 5.74183C29.5165 4.83638 27.7491 4.78584 25.5605 4.82655C27.0781 3.15321 28.3443 1.77327 29.5881 0.372269C29.932 -0.0151822 30.2801 -0.0769478 30.7574 0.0802786C32.4939 0.654436 34.2403 1.20052 36.2463 1.84065Z" fill="white" fill-opacity="0.9"/>
<g filter="url(#filter1_i_260_22903)">
<path d="M40.6399 48.1393L52.0108 34.7723L49.1723 30.0316H31.8226L28.9785 34.8664L36.0888 42.8301C36.0888 42.8301 34.7608 40.4605 39.2179 35.9094C39.2179 35.9094 36.4678 37.0465 34.7608 40.4605L31.2513 36.1943C31.2513 36.1943 30.1156 34.6782 32.1062 34.6782C32.1062 34.6782 29.7366 34.7737 31.3481 33.0667L32.4866 31.0761H48.5083L50.0258 33.2562C50.0258 33.2562 50.7838 34.7737 48.8887 34.7737C48.8887 34.7737 50.7838 34.5842 49.4502 36.0062L40.4504 46.6232C40.4504 46.6232 37.5109 43.6837 40.0714 40.8396C40.0714 40.8396 47.4667 33.4443 47.3712 31.7373C47.3712 31.7373 47.9875 27.1398 43.1991 27.7561C43.1991 27.7561 41.2562 28.0368 40.8295 29.9362C40.8295 29.9362 42.441 28.3246 43.6736 29.0363C44.9061 29.7481 44.1158 31.7625 43.6258 32.4967C43.1528 33.207 40.6399 36.2407 40.6399 36.2407C40.6399 36.2407 35.947 41.4558 38.0794 44.9162L40.6399 48.1393Z" fill="#E88F9F"/>
</g>
</g>
<defs>
<filter id="filter0_d_260_22903" x="0.272668" y="0" width="79.4547" height="79.4234" filterUnits="userSpaceOnUse" color-interpolation-filters="sRGB">
<feFlood flood-opacity="0" result="BackgroundImageFix"/>
<feColorMatrix in="SourceAlpha" type="matrix" values="0 0 0 0 0 0 0 0 0 0 0 0 0 0 0 0 0 0 127 0" result="hardAlpha"/>
<feOffset dy="2.78788"/>
<feGaussianBlur stdDeviation="1.39394"/>
<feComposite in2="hardAlpha" operator="out"/>
<feColorMatrix type="matrix" values="0 0 0 0 0.733333 0 0 0 0 0.407843 0 0 0 0 0.470588 0 0 0 0.4 0"/>
<feBlend mode="normal" in2="BackgroundImageFix" result="effect1_dropShadow_260_22903"/>
<feBlend mode="normal" in="SourceGraphic" in2="effect1_dropShadow_260_22903" result="shape"/>
</filter>
<filter id="filter1_i_260_22903" x="28.9785" y="27.6992" width="23.0332" height="27.4111" filterUnits="userSpaceOnUse" color-interpolation-filters="sRGB">
<feFlood flood-opacity="0" result="BackgroundImageFix"/>
<feBlend mode="normal" in="SourceGraphic" in2="BackgroundImageFix" result="shape"/>
<feColorMatrix in="SourceAlpha" type="matrix" values="0 0 0 0 0 0 0 0 0 0 0 0 0 0 0 0 0 0 127 0" result="hardAlpha"/>
<feOffset dy="6.9697"/>
<feGaussianBlur stdDeviation="3.48485"/>
<feComposite in2="hardAlpha" operator="arithmetic" k2="-1" k3="1"/>
<feColorMatrix type="matrix" values="0 0 0 0 0.733333 0 0 0 0 0.407843 0 0 0 0 0.470588 0 0 0 0.1 0"/>
<feBlend mode="normal" in2="shape" result="effect1_innerShadow_260_22903"/>
</filter>
</defs>
</svg>
