<svg width="24" height="24" viewBox="0 0 24 24" fill="none" xmlns="http://www.w3.org/2000/svg">
<g clip-path="url(#clip0_260_28251)">
<path d="M0.136719 4.21278C0.136719 3.6052 0.388139 3.0225 0.835669 2.59287C1.2832 2.16324 1.89018 1.92188 2.52308 1.92188H11.2731H20.0231C20.656 1.92188 21.263 2.16324 21.7105 2.59287C22.158 3.0225 22.4094 3.6052 22.4094 4.21278V5.74006C22.4097 6.21401 22.2568 6.67637 21.9719 7.06342C21.687 7.45048 21.284 7.74316 20.8185 7.90115V8.94733C20.3101 8.69758 19.7772 8.49653 19.2276 8.34711V8.03097H3.31854V16.431C3.31854 17.0386 3.56996 17.6213 4.01749 18.0509C4.46502 18.4805 5.072 18.7219 5.7049 18.7219H8.42058C8.57808 19.2549 8.78649 19.765 9.04581 20.2491H5.7049C4.65006 20.2491 3.63843 19.8469 2.89254 19.1308C2.14666 18.4148 1.72763 17.4436 1.72763 16.431V7.90115C1.26216 7.74316 0.859196 7.45048 0.574264 7.06342C0.289331 6.67637 0.13646 6.21401 0.136719 5.74006V4.21278ZM2.52308 3.44915C2.31211 3.44915 2.10979 3.5296 1.96061 3.67281C1.81143 3.81602 1.72763 4.01025 1.72763 4.21278V5.74006C1.72763 5.94259 1.81143 6.13682 1.96061 6.28003C2.10979 6.42324 2.31211 6.50369 2.52308 6.50369H20.0231C20.234 6.50369 20.4364 6.42324 20.5856 6.28003C20.7347 6.13682 20.8185 5.94259 20.8185 5.74006V4.21278C20.8185 4.01025 20.7347 3.81602 20.5856 3.67281C20.4364 3.5296 20.234 3.44915 20.0231 3.44915H2.52308ZM16.8413 23.3037C18.74 23.3037 20.5609 22.5796 21.9035 21.2907C23.2461 20.0018 24.0004 18.2537 24.0004 16.431C24.0004 14.6082 23.2461 12.8601 21.9035 11.5712C20.5609 10.2823 18.74 9.55824 16.8413 9.55824C14.9426 9.55824 13.1216 10.2823 11.779 11.5712C10.4364 12.8601 9.68217 14.6082 9.68217 16.431C9.68217 18.2537 10.4364 20.0018 11.779 21.2907C13.1216 22.5796 14.9426 23.3037 16.8413 23.3037ZM15.4158 13.5353L13.9888 14.9037H16.4435C17.6039 14.9037 18.7167 15.3462 19.5371 16.1338C20.3576 16.9215 20.8185 17.9898 20.8185 19.1037V19.4855C20.8185 19.688 20.7347 19.8823 20.5856 20.0255C20.4364 20.1687 20.234 20.2491 20.0231 20.2491C19.8121 20.2491 19.6098 20.1687 19.4606 20.0255C19.3114 19.8823 19.2276 19.688 19.2276 19.4855V19.1037C19.2276 18.3948 18.9343 17.715 18.4122 17.2138C17.8901 16.7126 17.1819 16.431 16.4435 16.431H13.9888L15.4158 17.7994C15.5652 17.9428 15.6491 18.1373 15.6491 18.3401C15.6491 18.5428 15.5652 18.7373 15.4158 18.8807C15.2664 19.0241 15.0639 19.1047 14.8526 19.1047C14.6414 19.1047 14.4388 19.0241 14.2894 18.8807L11.5022 16.2019C11.4286 16.131 11.3704 16.047 11.3307 15.9545C11.2911 15.862 11.2708 15.7629 11.2711 15.6629C11.2714 15.5629 11.2923 15.4639 11.3325 15.3716C11.3727 15.2793 11.4314 15.1956 11.5054 15.1251L14.2894 12.4524C14.4388 12.309 14.6414 12.2285 14.8526 12.2285C15.0639 12.2285 15.2664 12.309 15.4158 12.4524C15.5652 12.5958 15.6491 12.7903 15.6491 12.9931C15.6491 13.1959 15.5652 13.3903 15.4158 13.5337V13.5353Z" fill="#5C5E62"/>
</g>
<defs>
<clipPath id="clip0_260_28251">
<rect width="24" height="24" fill="white"/>
</clipPath>
</defs>
</svg>
