<svg width="22" height="24" viewBox="0 0 22 24" fill="none" xmlns="http://www.w3.org/2000/svg">
<path opacity="0.835" fill-rule="evenodd" clip-rule="evenodd" d="M10.7297 0C10.9566 0.0354556 11.1603 0.129571 11.3409 0.282346C11.4314 1.59995 11.4314 2.91758 11.3409 4.23519C10.9821 4.45522 10.6652 4.40817 10.3902 4.09401C10.2996 2.82346 10.2996 1.5529 10.3902 0.282346C10.5253 0.20245 10.6384 0.108335 10.7297 0Z" fill="#E88F9F"/>
<path opacity="0.786" fill-rule="evenodd" clip-rule="evenodd" d="M2.44294 3.53125C3.23869 4.00367 3.94039 4.61542 4.54806 5.3665C4.89583 6.16922 4.64684 6.4751 3.80109 6.28412C3.23519 5.6959 2.6693 5.10769 2.10341 4.51946C1.95624 4.07351 2.06943 3.74411 2.44294 3.53125Z" fill="#E88F9F"/>
<path opacity="0.84" fill-rule="evenodd" clip-rule="evenodd" d="M19.1496 3.53125C19.645 3.67245 19.8034 4.00186 19.6249 4.51946C18.9867 5.23007 18.3077 5.88887 17.5877 6.49588C17.4504 6.37778 17.2919 6.33071 17.1124 6.35471C17.1355 6.16806 17.0902 6.00337 16.9766 5.8606C17.6262 4.9997 18.3506 4.22325 19.1496 3.53125Z" fill="#E88F9F"/>
<path opacity="0.686" fill-rule="evenodd" clip-rule="evenodd" d="M10.5955 4.94142C11.3402 4.93873 11.5666 5.29166 11.2746 6.00022C10.3487 6.12171 10.1224 5.76878 10.5955 4.94142Z" fill="#E88F9F"/>
<path opacity="0.853" fill-rule="evenodd" clip-rule="evenodd" d="M4.89126 7.19984C9.063 7.13359 13.228 7.20417 17.3862 7.4116C18.458 8.94954 19.4766 10.526 20.442 12.1409C20.588 12.7562 20.4974 13.3209 20.1704 13.835C17.2918 17.1562 14.417 20.4738 11.5462 23.7877C11.3128 23.8365 11.0864 23.9071 10.8671 23.9994C10.6477 23.9071 10.4214 23.8365 10.188 23.7877C7.22664 20.3326 4.26135 16.8739 1.29218 13.4114C1.15542 12.7605 1.24596 12.1487 1.56381 11.5762C2.38684 10.3908 3.15646 9.16734 3.87265 7.9057C4.13251 7.5132 4.47204 7.27791 4.89126 7.19984ZM5.70615 8.47039C7.0858 8.30685 8.48921 8.28331 9.91639 8.39981C9.16406 9.46938 8.46236 10.5752 7.81127 11.7174C7.12816 10.61 6.42646 9.5277 5.70615 8.47039ZM11.8178 8.47039C13.1974 8.30685 14.6009 8.28331 16.028 8.39981C15.3433 9.51776 14.6415 10.6236 13.9229 11.7174C13.2853 10.577 12.5836 9.49469 11.8178 8.47039ZM4.61963 8.89391C5.32926 9.94296 6.00833 11.0253 6.65685 12.1409C5.30096 12.3054 3.94281 12.329 2.58242 12.2115C3.29546 11.1196 3.97453 10.0137 4.61963 8.89391ZM10.7313 9.03509C11.5331 10.0129 12.2574 11.0717 12.9043 12.2115C11.5462 12.3056 10.188 12.3056 8.82987 12.2115C9.51766 11.1803 10.1515 10.1215 10.7313 9.03509ZM16.9787 9.03509C17.7666 10.0233 18.491 11.0821 19.1518 12.2115C17.7913 12.329 16.4332 12.3054 15.0773 12.1409C15.7684 11.1409 16.4022 10.1057 16.9787 9.03509ZM2.85405 13.5526C4.35733 13.365 5.87392 13.365 7.40382 13.5526C8.1607 16.1464 8.88505 18.7345 9.57685 21.3171C7.35417 18.7015 5.11323 16.1132 2.85405 13.5526ZM8.55825 13.4114C10.1001 13.3645 11.6394 13.4116 13.1759 13.5526C12.4333 16.0567 11.6637 18.5507 10.8671 21.0348C10.0553 18.5065 9.28572 15.9654 8.55825 13.4114ZM14.3983 13.4114C15.8929 13.3879 17.3869 13.4115 18.8801 13.482C16.6392 16.0937 14.3983 18.7054 12.1573 21.3171C12.8609 18.6755 13.6078 16.0402 14.3983 13.4114Z" fill="#E88F9F"/>
<path opacity="0.731" fill-rule="evenodd" clip-rule="evenodd" d="M0 12.2812C0.644924 12.4221 0.780738 12.775 0.407443 13.34C0.278688 13.4082 0.142873 13.4317 0 13.4106C0 13.0342 0 12.6577 0 12.2812Z" fill="#E88F9F"/>
<path opacity="0.695" fill-rule="evenodd" clip-rule="evenodd" d="M21.7289 12.2848C21.7289 12.6613 21.7289 13.0377 21.7289 13.4142C21.027 13.2958 20.8912 12.9429 21.3214 12.3554C21.4502 12.2873 21.586 12.2637 21.7289 12.2848Z" fill="#E88F9F"/>
</svg>
