<svg width="18" height="18" viewBox="0 0 18 18" fill="none" xmlns="http://www.w3.org/2000/svg">
<circle cx="9" cy="9" r="8.65" stroke="#E88F9F" stroke-width="0.7"/>
<path d="M9.47401 13.7387C9.51915 13.7064 10.5818 12.9427 11.6571 11.8354C12.3053 11.1674 12.8274 10.5084 13.2071 9.87654C13.4467 9.47728 13.6354 9.08189 13.765 8.70072C13.9213 8.2446 14 7.79624 14 7.36597C14.0011 6.90985 13.919 6.46665 13.7581 6.0493C13.6029 5.64828 13.3792 5.28487 13.0994 4.97943L9.47401 13.7387ZM9.47401 13.7387L9.19967 13.9351L9.47401 13.7387ZM12.8252 6.40957C12.7132 6.12038 12.5544 5.86487 12.362 5.65486L12.3612 5.65404C12.1673 5.44186 11.9445 5.27947 11.7078 5.17016L11.7064 5.16952C11.4609 5.05568 11.2023 4.99934 10.9443 5.00001L10.9418 5.00001C10.5779 5.00001 10.2162 5.11059 9.89333 5.33049L9.8933 5.33051C9.81572 5.38334 9.74194 5.4414 9.67175 5.50495L9.00057 6.11264L8.32939 5.50494C8.25921 5.4414 8.18543 5.38334 8.10785 5.33051L8.10782 5.33049C7.7849 5.11059 7.42329 5.00001 7.05938 5.00001C6.79449 5.00001 6.53977 5.0559 6.29471 5.16953L6.29357 5.17006C6.05559 5.28004 5.83504 5.44069 5.63961 5.65436L5.63833 5.65575C5.44619 5.86502 5.28757 6.12009 5.17615 6.40902L12.8252 6.40957ZM12.8252 6.40957C12.9411 6.71046 13.0008 7.03058 13 7.36343V7.36597C13 7.67399 12.9436 8.01285 12.819 8.37661L12.8183 8.37871C12.7154 8.68114 12.5597 9.01193 12.3499 9.36148C12.0186 9.9128 11.5481 10.5118 10.9395 11.139C10.1113 11.9917 9.28809 12.6304 8.99961 12.8463C8.89321 12.7668 8.7012 12.6202 8.45521 12.4181C8.06958 12.1012 7.56467 11.6587 7.06063 11.1391L7.06052 11.139C6.45189 10.5118 5.98136 9.9128 5.65007 9.36148C5.44143 9.01376 5.28589 8.68213 5.181 8.37661L12.8252 6.40957ZM5 7.36597C5 7.03122 5.06008 6.71012 5.17612 6.40909L5.18084 8.37614C5.05633 8.01256 5 7.67386 5 7.36597Z" fill="#E88F9F" stroke="#E88F9F" stroke-width="2"/>
</svg>
