<svg width="20" height="20" viewBox="0 0 20 20" fill="none" xmlns="http://www.w3.org/2000/svg">
<path d="M15 18.3346C14.3056 18.3346 13.7153 18.0916 13.2292 17.6055C12.7431 17.1194 12.5 16.5291 12.5 15.8346C12.5 15.7374 12.5069 15.6366 12.5208 15.5321C12.5347 15.4277 12.5556 15.3341 12.5833 15.2513L6.70833 11.8346C6.47222 12.043 6.20833 12.2063 5.91667 12.3246C5.625 12.443 5.31944 12.5019 5 12.5013C4.30556 12.5013 3.71528 12.2582 3.22917 11.7721C2.74306 11.286 2.5 10.6957 2.5 10.0013C2.5 9.30686 2.74306 8.71658 3.22917 8.23047C3.71528 7.74436 4.30556 7.5013 5 7.5013C5.31944 7.5013 5.625 7.56047 5.91667 7.6788C6.20833 7.79714 6.47222 7.96019 6.70833 8.16797L12.5833 4.7513C12.5556 4.66797 12.5347 4.57436 12.5208 4.47047C12.5069 4.36658 12.5 4.26575 12.5 4.16797C12.5 3.47352 12.7431 2.88325 13.2292 2.39714C13.7153 1.91102 14.3056 1.66797 15 1.66797C15.6944 1.66797 16.2847 1.91102 16.7708 2.39714C17.2569 2.88325 17.5 3.47352 17.5 4.16797C17.5 4.86241 17.2569 5.45269 16.7708 5.9388C16.2847 6.42491 15.6944 6.66797 15 6.66797C14.6806 6.66797 14.375 6.60908 14.0833 6.4913C13.7917 6.37352 13.5278 6.21019 13.2917 6.0013L7.41667 9.41797C7.44444 9.5013 7.46528 9.59519 7.47917 9.69964C7.49306 9.80408 7.5 9.90464 7.5 10.0013C7.5 10.0985 7.49306 10.1994 7.47917 10.3038C7.46528 10.4082 7.44444 10.5019 7.41667 10.5846L13.2917 14.0013C13.5278 13.793 13.7917 13.6299 14.0833 13.5121C14.375 13.3944 14.6806 13.3352 15 13.3346C15.6944 13.3346 16.2847 13.5777 16.7708 14.0638C17.2569 14.5499 17.5 15.1402 17.5 15.8346C17.5 16.5291 17.2569 17.1194 16.7708 17.6055C16.2847 18.0916 15.6944 18.3346 15 18.3346ZM15 5.0013C15.2361 5.0013 15.4342 4.9213 15.5942 4.7613C15.7542 4.6013 15.8339 4.40352 15.8333 4.16797C15.8333 3.93186 15.7533 3.7338 15.5933 3.5738C15.4333 3.4138 15.2356 3.33408 15 3.33464C14.7639 3.33464 14.5658 3.41464 14.4058 3.57464C14.2458 3.73464 14.1661 3.93241 14.1667 4.16797C14.1667 4.40408 14.2467 4.60214 14.4067 4.76214C14.5667 4.92214 14.7644 5.00186 15 5.0013ZM5 10.8346C5.23611 10.8346 5.43417 10.7546 5.59417 10.5946C5.75417 10.4346 5.83389 10.2369 5.83333 10.0013C5.83333 9.76519 5.75333 9.56714 5.59333 9.40714C5.43333 9.24714 5.23556 9.16741 5 9.16797C4.76389 9.16797 4.56583 9.24797 4.40583 9.40797C4.24583 9.56797 4.16611 9.76575 4.16667 10.0013C4.16667 10.2374 4.24667 10.4355 4.40667 10.5955C4.56667 10.7555 4.76444 10.8352 5 10.8346ZM15 16.668C15.2361 16.668 15.4342 16.588 15.5942 16.428C15.7542 16.268 15.8339 16.0702 15.8333 15.8346C15.8333 15.5985 15.7533 15.4005 15.5933 15.2405C15.4333 15.0805 15.2356 15.0007 15 15.0013C14.7639 15.0013 14.5658 15.0813 14.4058 15.2413C14.2458 15.4013 14.1661 15.5991 14.1667 15.8346C14.1667 16.0707 14.2467 16.2688 14.4067 16.4288C14.5667 16.5888 14.7644 16.6685 15 16.668Z" fill="#BB6878"/>
</svg>
