<svg width="20" height="20" viewBox="0 0 20 20" fill="none" xmlns="http://www.w3.org/2000/svg">
<path opacity="0.961" fill-rule="evenodd" clip-rule="evenodd" d="M17.0574 0C17.0994 0 17.1414 0 17.1835 0C16.9505 0.576481 16.7054 1.14939 16.4481 1.71875C15.7699 3.36258 15.8119 4.9902 16.5741 6.60156C16.7875 7.01133 17.0116 7.41496 17.2465 7.8125C17.7113 8.43996 18.1595 9.07801 18.5912 9.72656C19.4595 11.0671 19.9287 12.5189 19.999 14.082C19.9219 16.3227 18.8853 18.0544 16.8893 19.2773C16.1632 19.6564 15.3928 19.8973 14.5781 20C14.0878 20 13.5976 20 13.1073 20C11.3175 19.7704 9.81167 19.0412 8.58991 17.8125C8.56003 17.7396 8.58105 17.681 8.65295 17.6367C8.8568 17.4963 9.05287 17.3466 9.24126 17.1875C11.0622 18.9844 13.2473 19.5248 15.7967 18.8086C17.6182 17.9827 18.6898 16.635 19.0114 14.7656C19.1388 13.719 18.9987 12.7034 18.5912 11.7188C18.3843 11.2038 18.1322 10.7091 17.8348 10.2344C17.3166 9.49219 16.7982 8.75 16.28 8.00781C15.6876 7.05879 15.2954 6.04316 15.1034 4.96094C14.9725 3.98105 15.0425 3.01751 15.3135 2.07031C12.229 4.05527 10.0088 6.67246 8.65295 9.92188C8.4056 9.8257 8.15347 9.74105 7.89654 9.66797C7.85385 9.6477 7.82586 9.61512 7.8125 9.57031C8.82028 7.03887 10.3891 4.85785 12.519 3.02734C13.4817 2.22336 14.5042 1.49419 15.5866 0.839844C16.0936 0.578504 16.5839 0.298555 17.0574 0Z" fill="#E88F9F"/>
<path opacity="0.963" fill-rule="evenodd" clip-rule="evenodd" d="M6.17727 8.4375C6.63952 9.50617 7.08075 10.5869 7.50098 11.6797C7.75521 12.2545 8.18241 12.6777 8.78266 12.9492C9.98731 13.3659 11.1919 13.7825 12.3966 14.1992C11.1859 14.6439 9.96722 15.0736 8.74063 15.4883C8.21313 15.7573 7.81392 16.1414 7.543 16.6406C7.10563 17.7529 6.65742 18.8596 6.19829 19.9609C5.74793 18.8876 5.31372 17.8068 4.8956 16.7188C4.62947 16.1768 4.21626 15.7666 3.65594 15.4883C2.42934 15.0736 1.21069 14.6439 0 14.1992C1.17339 13.7879 2.35001 13.3843 3.52987 12.9883C4.20139 12.7026 4.67065 12.2404 4.93762 11.6016C5.35528 10.5475 5.76848 9.49277 6.17727 8.4375ZM6.17727 10.9375C6.37516 11.4039 6.57825 11.8727 6.7866 12.3438C7.1648 12.9948 7.71811 13.47 8.44648 13.7695C8.8667 13.9128 9.28692 14.056 9.70715 14.1992C9.19027 14.3942 8.67201 14.5895 8.15232 14.7852C7.47795 15.1516 6.98066 15.6659 6.66053 16.3281C6.50644 16.7188 6.35238 17.1094 6.19829 17.5C5.99175 16.8168 5.6836 16.1788 5.2738 15.5859C4.99586 15.2882 4.68069 15.0343 4.32829 14.8242C3.78553 14.6044 3.23924 14.3961 2.68943 14.1992C3.26312 14.0215 3.8234 13.8131 4.37032 13.5742C4.96039 13.2341 5.40163 12.7718 5.69402 12.1875C5.86799 11.7739 6.02906 11.3573 6.17727 10.9375Z" fill="#E88F9F"/>
<path opacity="0.959" fill-rule="evenodd" clip-rule="evenodd" d="M15.7144 9.49219C16.6382 10.5193 17.2896 11.6912 17.6684 13.0078C18.0255 14.5444 17.6123 15.8725 16.4288 16.9922C16.2047 16.8099 15.9945 16.6146 15.7984 16.4062C16.7843 15.3856 17.0714 14.2137 16.6599 12.8906C16.2757 11.8386 15.7224 10.875 15 10C15.2486 9.83941 15.4867 9.67016 15.7144 9.49219Z" fill="#E88F9F"/>
</svg>
