<svg width="24" height="25" viewBox="0 0 24 25" fill="none" xmlns="http://www.w3.org/2000/svg">
<path fill-rule="evenodd" clip-rule="evenodd" d="M15.09 2.39062L12 3.71687L8.90875 2.39062L7.19 5.28063L3.90875 6.01813L4.2175 9.36312L2 11.9006L4.2175 14.4269L3.90875 17.7819L7.19 18.5269L8.90875 21.4181L12 20.0806L15.09 21.4081L16.8088 18.5169L20.0912 17.7719L19.7812 14.4269L22 11.9006L19.7812 9.37187L20.0912 6.02688L16.8088 5.28063L15.09 2.39062Z" fill="#E28092"/>
<path d="M15.3906 9.93262L15.042 11.2588H8.5957L8.95117 9.93262H15.3906ZM12.0889 17.3906L8.79395 13.4873L8.78711 12.3184H10.3936C10.7673 12.3184 11.0749 12.2454 11.3164 12.0996C11.5579 11.9538 11.738 11.7578 11.8564 11.5117C11.9749 11.2611 12.0342 10.9831 12.0342 10.6777C12.0342 10.3587 11.9795 10.0762 11.8701 9.83008C11.7607 9.58398 11.5853 9.39258 11.3438 9.25586C11.1022 9.11458 10.7809 9.04395 10.3799 9.04395H8.60254L9.00586 7.4375H10.3799C11.2002 7.4375 11.8838 7.56055 12.4307 7.80664C12.9775 8.05273 13.3877 8.4082 13.6611 8.87305C13.9346 9.33333 14.0713 9.8916 14.0713 10.5479C14.0713 11.1221 13.9801 11.6257 13.7979 12.0586C13.6156 12.4915 13.3262 12.8493 12.9297 13.1318C12.5332 13.4098 12.0114 13.6058 11.3643 13.7197L14.3311 17.2949V17.3906H12.0889ZM15.4043 7.4375L15.0488 8.75684H9.70996L10.0654 7.4375H15.4043Z" fill="white"/>
</svg>
